Coordinates
version=1
nRows=24
nColumns=34
inDegrees=no

Units are S.I. units (second, meters, Newtons, ...)
If the header above contains a line with 'inDegrees', this indicates whether rotational values are in degrees (yes) or radians (no).

endheader
time	pelvis_tilt	pelvis_list	pelvis_rotation	pelvis_tx	pelvis_ty	pelvis_tz	hip_flexion_r	hip_adduction_r	hip_rotation_r	knee_angle_r	ankle_angle_r	subtalar_angle_r	mtp_angle_r	hip_flexion_l	hip_adduction_l	hip_rotation_l	knee_angle_l	ankle_angle_l	subtalar_angle_l	mtp_angle_l	lumbar_extension	lumbar_bending	lumbar_rotation	arm_flex_r	arm_add_r	arm_rot_r	elbow_flex_r	pro_sup_r	arm_flex_l	arm_add_l	arm_rot_l	elbow_flex_l	pro_sup_l
0.61	-0.334575	-0.0341084	0.0346315	-0.977094	1.21113	-0.57969	0.766974	-0.0219148	0.00736364	1.16861	0.436708	-0.319485	-0.129736	0.758495	-0.108035	0.00689991	1.15882	0.540024	-0.0611082	-0.129736	-0.358773	0.0480477	0.0138425	0.104057	-0.370812	0.0732555	0.850655	1.68396	0.076957	-0.361057	0.120077	1.084	1.62623
0.62	-0.331692	-0.0310587	0.0344717	-0.971424	1.20715	-0.580188	0.766293	-0.0273005	0.00884732	1.18698	0.438755	-0.3329	-0.129736	0.752413	-0.105571	0.00675316	1.1694	0.549427	-0.0711557	-0.129736	-0.358516	0.04572	0.0136941	0.100415	-0.380528	0.0710065	0.853347	1.67336	0.0778713	-0.372113	0.12947	1.08591	1.65185
0.63	-0.328357	-0.0285798	0.0338277	-0.964959	1.20384	-0.58083	0.760432	-0.0311767	0.0090247	1.19804	0.444788	-0.342344	-0.129736	0.741527	-0.102951	0.00518807	1.17408	0.562916	-0.0779663	-0.129736	-0.356119	0.0445387	0.0141294	0.0935044	-0.390956	0.0675588	0.856298	1.66515	0.0753747	-0.383081	0.140255	1.09068	1.65973
0.64	-0.324758	-0.0273119	0.0326758	-0.957546	1.20134	-0.581649	0.748665	-0.0328896	0.00732163	1.20094	0.456058	-0.346313	-0.129736	0.726102	-0.101171	0.0020691	1.17306	0.579649	-0.0796312	-0.129736	-0.35119	0.0452665	0.015015	0.0829173	-0.40199	0.0624894	0.857532	1.67539	0.0681108	-0.393717	0.151261	1.09728	1.66042
0.65	-0.320998	-0.0274851	0.0315814	-0.949131	1.1999	-0.582451	0.730698	-0.0322159	0.00347521	1.19553	0.472367	-0.34357	-0.129736	0.706584	-0.100384	-0.00211523	1.16652	0.597309	-0.0765219	-0.129736	-0.34387	0.0477738	0.015639	0.0687658	-0.412492	0.0564605	0.860117	1.6768	0.055412	-0.404095	0.158944	1.10492	1.66388
0.66	-0.317232	-0.0286144	0.0308971	-0.939846	1.19976	-0.583004	0.707277	-0.0293425	-0.00165865	1.18211	0.491165	-0.334432	-0.129736	0.683979	-0.100213	-0.00690604	1.15503	0.612672	-0.0704875	-0.129736	-0.334614	0.0511402	0.0155505	0.0508395	-0.421504	0.046994	0.86652	1.67142	0.0379083	-0.414446	0.162454	1.11471	1.66069
0.67	-0.313555	-0.0303471	0.0302473	-0.929863	1.20104	-0.583351	0.679896	-0.0245097	-0.00658005	1.1616	0.508498	-0.320341	-0.129736	0.659615	-0.100914	-0.012292	1.14007	0.62276	-0.0619457	-0.129736	-0.323872	0.0549126	0.0148797	0.0292622	-0.42987	0.0364034	0.883405	1.61647	0.0165803	-0.424244	0.163278	1.12467	1.65591
0.68	-0.309656	-0.0328583	0.0294363	-0.919258	1.20387	-0.583735	0.649768	-0.0181326	-0.0105295	1.13558	0.520215	-0.303213	-0.129736	0.634321	-0.103015	-0.0181671	1.12307	0.625194	-0.0506281	-0.129736	-0.312329	0.0596758	0.0139537	0.0051765	-0.437834	0.0241217	0.89728	1.59692	-0.00763883	-0.432518	0.162334	1.13209	1.66033
0.69	-0.30479	-0.0357214	0.0289932	-0.908009	1.20846	-0.584312	0.617109	-0.0115702	-0.0136026	1.10552	0.523694	-0.283844	-0.129736	0.607745	-0.105647	-0.0241795	1.10413	0.618179	-0.0381122	-0.129736	-0.30107	0.0652191	0.012128	-0.0197659	-0.445109	0.0142525	0.903738	1.60888	-0.0342656	-0.438716	0.157532	1.13612	1.67825
0.7	-0.297888	-0.0376191	0.0290511	-0.896049	1.21495	-0.585004	0.581082	-0.00642032	-0.0157231	1.07212	0.517938	-0.262375	-0.129736	0.578433	-0.107218	-0.0305265	1.08243	0.600798	-0.0262887	-0.129736	-0.291659	0.0699026	0.00927766	-0.0454139	-0.450816	0.00510058	0.90768	1.61937	-0.0623866	-0.443213	0.149568	1.14139	1.67699
0.71	-0.287636	-0.0382222	0.0288887	-0.883309	1.22341	-0.585642	0.540126	-0.00271661	-0.0168431	1.03526	0.5029	-0.239021	-0.129736	0.544743	-0.108125	-0.0380237	1.05808	0.573322	-0.0138078	-0.129736	-0.285921	0.0729185	0.00649046	-0.0722788	-0.454388	-0.0081139	0.912909	1.62385	-0.0909808	-0.446046	0.139061	1.14493	1.67329
0.72	-0.273183	-0.0382383	0.0281589	-0.869774	1.23369	-0.586212	0.493343	-5.73926e-06	-0.0177466	0.995004	0.478836	-0.213935	-0.129736	0.50608	-0.109973	-0.0474988	1.03219	0.536518	0.00238143	-0.129736	-0.284842	0.0749966	0.00457528	-0.0997764	-0.455815	-0.0252272	0.919435	1.61672	-0.119562	-0.447369	0.127819	1.14588	1.67354
0.73	-0.254984	-0.0374742	0.0273335	-0.855547	1.24553	-0.586908	0.44189	0.000402842	-0.0199062	0.952558	0.446274	-0.186396	-0.129736	0.463404	-0.112438	-0.0593585	1.00538	0.490494	0.0223329	-0.129736	-0.287723	0.0763977	0.00319118	-0.126727	-0.454805	-0.0457648	0.920315	1.63391	-0.147914	-0.447527	0.117482	1.14609	1.66712
0.74	-0.234684	-0.0353176	0.0266438	-0.840838	1.25853	-0.58787	0.388726	-0.00287876	-0.0244703	0.909736	0.405299	-0.156092	-0.129736	0.418948	-0.11422	-0.0737256	0.977687	0.435003	0.0432238	-0.129736	-0.292643	0.0766222	0.00180303	-0.15311	-0.452128	-0.0666383	0.920335	1.63358	-0.176045	-0.446574	0.107001	1.14336	1.6708
0.75	-0.213579	-0.0323909	0.0258229	-0.825877	1.27241	-0.58894	0.336379	-0.00874197	-0.03138	0.867923	0.355276	-0.1246	-0.129736	0.37476	-0.115991	-0.0908429	0.949363	0.370795	0.0636837	-0.129736	-0.298458	0.0760321	0.000807789	-0.180221	-0.448707	-0.0881397	0.919839	1.63683	-0.203809	-0.44531	0.098422	1.14288	1.65445
0.76	-0.191767	-0.0300039	0.0248001	-0.810839	1.287	-0.58988	0.285828	-0.0148545	-0.0397553	0.827917	0.295122	-0.0952179	-0.129736	0.331734	-0.119395	-0.110238	0.92104	0.298721	0.0833119	-0.129736	-0.305607	0.0756064	0.000289728	-0.20821	-0.445654	-0.107571	0.920308	1.64514	-0.231361	-0.44369	0.0892195	1.13835	1.66402
0.77	-0.169488	-0.028419	0.0236791	-0.795892	1.30209	-0.590683	0.238331	-0.0203898	-0.048635	0.790703	0.223889	-0.0718478	-0.129736	0.290787	-0.124019	-0.129936	0.893296	0.217783	0.0985464	-0.129736	-0.314266	0.0756974	0.000260644	-0.236267	-0.44352	-0.12276	0.92298	1.64305	-0.25859	-0.442093	0.0814336	1.13669	1.65748
0.78	-0.148648	-0.0273057	0.0225262	-0.781312	1.31723	-0.591472	0.197154	-0.0254418	-0.05716	0.757655	0.14117	-0.0578995	-0.129736	0.25474	-0.128262	-0.147388	0.866807	0.126523	0.10436	-0.129736	-0.322754	0.0761093	0.000400851	-0.263263	-0.441884	-0.135193	0.925104	1.64388	-0.285346	-0.439911	0.0726532	1.13329	1.6655
0.79	-0.131619	-0.0263838	0.0216563	-0.767407	1.332	-0.592193	0.165582	-0.0299059	-0.0645424	0.729716	0.0480069	-0.0543853	-0.129736	0.226899	-0.131268	-0.161011	0.84191	0.0247265	0.0998203	-0.129736	-0.329003	0.0765474	-0.000578223	-0.288056	-0.440085	-0.145606	0.927422	1.63888	-0.311849	-0.437067	0.0612967	1.12807	1.68833
0.8	-0.11898	-0.0251838	0.0212644	-0.754269	1.3462	-0.592722	0.143934	-0.0338963	-0.0702559	0.706616	-0.0531443	-0.0603208	-0.129736	0.207642	-0.132521	-0.170602	0.817467	-0.0876495	0.0867673	-0.129736	-0.332845	0.0764335	-0.00385094	-0.309818	-0.437819	-0.15454	0.929106	1.63583	-0.338487	-0.433944	0.0477689	1.12568	1.69537
0.81	-0.110048	-0.0237939	0.020811	-0.741725	1.35966	-0.593114	0.130517	-0.0371412	-0.0738781	0.686848	-0.161361	-0.0765088	-0.129736	0.194895	-0.131984	-0.176732	0.791907	-0.207694	0.0641494	-0.129736	-0.335268	0.0755307	-0.00809401	-0.32955	-0.435309	-0.162579	0.929659	1.6399	-0.365191	-0.430547	0.0322941	1.1254	1.69517
0.82	-0.104651	-0.023239	0.0198307	-0.729594	1.37204	-0.59354	0.124108	-0.0386519	-0.0753164	0.668518	-0.278446	-0.103875	-0.129736	0.187577	-0.130703	-0.17962	0.76644	-0.321447	0.0297052	-0.129736	-0.336601	0.0746047	-0.0108573	-0.349417	-0.432727	-0.170067	0.931972	1.63053	-0.391628	-0.426998	0.0164972	1.12734	1.69317
0.83	-0.10295	-0.0237021	0.0189088	-0.717908	1.38308	-0.594114	0.124149	-0.0388921	-0.0757538	0.651215	-0.402238	-0.136637	-0.129736	0.186317	-0.129121	-0.178782	0.745256	-0.405123	-0.0127233	-0.129736	-0.336503	0.0742133	-0.0123838	-0.369962	-0.42968	-0.179702	0.932416	1.64356	-0.417798	-0.423368	0.00046373	1.12988	1.70006
0.84	-0.104849	-0.0239955	0.018894	-0.706776	1.3927	-0.594831	0.130456	-0.0399178	-0.0771523	0.637369	-0.518181	-0.164862	-0.129736	0.191776	-0.12643	-0.174119	0.731347	-0.441801	-0.0515383	-0.129736	-0.33449	0.0737885	-0.0147369	-0.39072	-0.426386	-0.190063	0.935256	1.64631	-0.443845	-0.419924	-0.0150553	1.13466	1.69813
